<?xml version="1.0" standalone="no"?>
<!DOCTYPE svg PUBLIC "-//W3C//DTD SVG 20010904//EN"
 "http://www.w3.org/TR/2001/REC-SVG-20010904/DTD/svg10.dtd">
<svg version="1.0" xmlns="http://www.w3.org/2000/svg"
 width="150.000000pt" height="141.000000pt" viewBox="0 0 150.000000 141.000000"
 preserveAspectRatio="xMidYMid meet">

<g transform="translate(0.000000,141.000000) scale(0.100000,-0.100000)"
fill="#000000" stroke="none">
<path d="M797 1347 c-4 -10 -7 -33 -7 -50 l0 -31 17 23 16 24 14 -27 c7 -14
18 -26 23 -26 14 0 12 12 -5 37 -14 20 -13 23 7 38 21 16 21 17 3 12 -11 -2
-27 -8 -37 -12 -11 -4 -17 -1 -20 12 -3 17 -4 17 -11 0z"/>
<path d="M634 1321 c3 -18 6 -40 6 -47 0 -8 5 -14 10 -14 13 0 2 70 -13 85 -6
7 -8 -1 -3 -24z"/>
<path d="M514 1315 c-9 -22 5 -35 37 -35 20 0 29 -4 26 -12 -2 -7 -17 -12 -32
-11 -20 2 -25 -1 -17 -9 16 -16 62 -1 62 21 0 20 -19 31 -51 31 -12 0 -17 4
-13 11 3 6 15 9 25 6 11 -3 19 -1 19 4 0 15 -50 10 -56 -6z"/>
<path d="M938 1296 c-30 -38 -37 -56 -14 -37 16 14 50 1 60 -21 3 -7 4 9 3 36
-1 27 -6 51 -12 53 -5 2 -22 -13 -37 -31z m32 -12 c0 -8 -5 -12 -10 -9 -6 4
-8 11 -5 16 9 14 15 11 15 -7z"/>
<path d="M1052 1250 c-12 -22 -18 -40 -13 -40 6 0 14 8 20 18 8 15 12 12 25
-18 11 -24 15 -29 16 -15 0 11 9 26 20 33 24 15 17 35 -16 51 -14 6 -26 11
-27 11 -1 0 -12 -18 -25 -40z m52 14 c23 -9 20 -24 -4 -24 -11 0 -20 7 -20 15
0 17 2 18 24 9z"/>
<path d="M400 1262 c0 -11 3 -34 6 -51 7 -31 7 -31 21 -11 11 16 22 20 39 16
35 -9 29 5 -14 34 -51 34 -52 34 -52 12z m35 -22 c3 -5 1 -10 -4 -10 -6 0 -11
5 -11 10 0 6 2 10 4 10 3 0 8 -4 11 -10z"/>
<path d="M713 1233 c8 -7 77 -6 85 2 3 3 -16 5 -43 5 -27 0 -45 -3 -42 -7z"/>
<path d="M653 1223 c9 -2 23 -2 30 0 6 3 -1 5 -18 5 -16 0 -22 -2 -12 -5z"/>
<path d="M833 1223 c9 -2 23 -2 30 0 6 3 -1 5 -18 5 -16 0 -22 -2 -12 -5z"/>
<path d="M1186 1205 c-4 -16 -11 -38 -17 -47 -15 -29 -11 -31 17 -9 15 12 33
21 40 21 7 0 16 5 20 11 5 8 -1 10 -19 5 -22 -5 -26 -3 -29 21 l-4 28 -8 -30z"/>
<path d="M598 1213 c7 -3 16 -2 19 1 4 3 -2 6 -13 5 -11 0 -14 -3 -6 -6z"/>
<path d="M888 1213 c6 -2 18 -2 25 0 6 3 1 5 -13 5 -14 0 -19 -2 -12 -5z"/>
<path d="M277 1192 c-16 -17 -15 -20 12 -53 16 -19 32 -31 36 -27 5 4 3 14 -3
21 -16 19 -5 27 32 21 28 -4 29 -3 9 7 -12 6 -23 20 -26 30 -6 24 -39 24 -60
1z m43 -6 c0 -16 -18 -31 -27 -22 -8 8 5 36 17 36 5 0 10 -6 10 -14z"/>
<path d="M510 1187 c-206 -86 -340 -277 -340 -487 0 -139 47 -247 155 -356 79
-80 174 -135 277 -159 82 -19 228 -19 303 0 267 68 451 304 431 553 -13 159
-96 295 -245 400 -42 30 -149 77 -158 69 -2 -3 23 -14 56 -27 232 -86 383
-351 328 -576 -46 -187 -178 -329 -367 -395 -47 -16 -95 -24 -175 -27 -103 -4
-117 -2 -203 27 -184 61 -306 175 -363 337 -23 68 -28 214 -9 286 40 147 165
285 314 345 33 14 63 27 65 29 10 10 -18 2 -69 -19z"/>
<path d="M690 1166 c0 -18 -59 -27 -68 -10 -6 10 -20 9 -68 -9 -33 -12 -59
-27 -57 -33 5 -16 -64 -56 -73 -42 -5 7 -2 8 7 3 11 -6 12 -5 2 5 -10 11 -20
6 -55 -26 -40 -36 -57 -77 -36 -90 14 -9 9 -24 -7 -24 -9 0 -22 -15 -29 -32
-8 -18 -21 -49 -30 -69 -25 -58 -16 -254 13 -279 3 -3 14 -22 23 -42 9 -20 26
-42 38 -48 26 -14 26 0 0 30 -11 13 -18 26 -15 29 7 7 54 -50 55 -66 0 -12
-32 -11 -64 2 -16 7 -17 5 -11 -16 21 -67 92 -134 190 -179 67 -31 96 -35 280
-34 127 1 132 2 205 36 83 39 140 88 171 150 22 43 21 52 -5 42 -13 -5 -14 -9
-5 -14 9 -6 7 -17 -10 -43 -37 -60 -49 -65 -76 -31 -18 22 -21 33 -13 47 5 10
7 21 5 24 -3 2 -8 -4 -11 -14 -8 -25 -148 -91 -224 -105 -63 -12 -85 -7 -64
14 7 7 12 20 12 30 0 14 8 18 41 18 43 0 72 11 105 42 19 17 22 17 34 3 29
-35 83 2 61 44 -11 20 -51 31 -116 31 -56 0 -85 24 -87 70 -1 39 9 80 21 80
10 0 31 -46 31 -66 0 -8 5 -12 10 -9 6 3 10 18 10 33 0 15 4 33 9 40 8 14 24
-1 58 -54 11 -17 12 -16 12 12 1 16 8 39 15 50 14 18 16 17 33 -23 22 -52 33
-55 33 -9 0 57 8 66 56 66 l44 0 -5 -49 c-3 -27 -11 -67 -19 -89 -8 -22 -11
-44 -8 -48 4 -4 1 -4 -5 0 -8 4 -13 1 -13 -8 0 -8 7 -19 15 -24 10 -5 13 -15
9 -25 -10 -26 -21 -20 -28 16 -5 25 -9 29 -16 17 -12 -19 -13 -33 -1 -26 5 3
12 -5 15 -19 6 -22 9 -24 26 -15 11 6 20 17 20 26 0 8 10 18 23 23 41 16 70
64 87 145 11 50 11 188 0 181 -3 -2 -12 22 -18 54 -13 60 -42 104 -42 63 0
-12 -5 -24 -10 -27 -13 -8 -13 8 1 39 9 19 9 29 0 40 -9 10 -9 16 -1 21 15 9
11 16 -38 59 -35 32 -45 36 -57 26 -12 -10 -19 -10 -27 -2 -15 15 -31 15 -22
0 4 -6 3 -8 -3 -5 -6 4 -10 17 -9 29 1 19 -8 27 -54 44 -44 16 -58 18 -70 8
-19 -15 -70 -7 -70 12 0 11 -16 14 -65 14 -49 0 -65 -3 -65 -14z m105 -20 c19
-18 94 -29 110 -16 17 15 85 -13 85 -34 0 -22 74 -58 88 -44 7 7 20 4 42 -12
24 -17 29 -27 24 -43 -14 -48 -32 -48 -88 -4 -64 53 -141 87 -226 100 -70 11
-204 1 -195 -14 4 -5 -1 -6 -9 -3 -22 8 -145 -51 -184 -89 -26 -25 -36 -29
-50 -21 -19 12 -22 41 -7 64 9 13 8 13 -7 2 -10 -8 -14 -21 -11 -30 5 -14 3
-15 -7 -5 -21 19 12 48 56 51 42 3 117 39 109 52 -3 5 15 18 41 29 54 24 54
24 54 10 0 -5 -4 -7 -10 -4 -5 3 -10 1 -10 -6 0 -16 92 -2 105 17 13 18 72 18
90 0z m-37 -88 c3 -15 -4 -18 -40 -19 -24 -1 -46 -1 -50 0 -5 0 -8 -6 -8 -14
0 -12 -15 -15 -71 -15 -76 0 -82 9 -20 30 22 7 38 17 35 21 -3 5 1 7 8 4 7 -3
33 -1 58 4 61 12 84 9 88 -11z m-268 -97 c-16 -32 -18 -45 -10 -59 8 -12 10
-13 7 -2 -3 9 1 29 8 45 l13 30 1 -27 c1 -16 5 -28 10 -28 4 0 6 12 3 26 -6
34 15 24 29 -13 5 -14 12 -23 16 -20 3 3 -4 22 -16 42 -11 20 -21 38 -21 41 0
3 28 4 63 2 l62 -3 3 -41 c3 -40 2 -41 -39 -53 -93 -28 -145 -81 -158 -161
l-6 -35 -68 -3 -69 -3 7 68 c4 37 11 70 15 73 10 7 31 49 40 81 7 23 5 29 -11
34 -10 4 -19 11 -19 16 0 6 13 2 30 -7 29 -17 30 -17 52 3 22 21 26 23 48 23
6 0 9 3 9 8 -3 19 2 25 12 15 8 -8 5 -22 -11 -52z m291 -1 c10 0 19 -4 19 -10
0 -5 -5 -10 -11 -10 -6 0 -9 -8 -7 -18 4 -15 -1 -18 -29 -18 -19 0 -32 4 -29
11 2 5 -3 18 -12 28 -14 15 -13 17 5 17 12 0 24 8 28 18 8 16 8 16 12 0 3 -10
13 -18 24 -18z m379 -26 c0 -8 -4 -12 -10 -9 -5 3 -10 10 -10 16 0 5 5 9 10 9
6 0 10 -7 10 -16z m-805 -20 c-9 -14 -14 -32 -11 -39 3 -8 1 -17 -5 -20 -5 -4
-9 -3 -8 2 1 4 0 10 -1 13 -5 15 -5 58 2 54 3 -2 9 0 13 6 3 5 11 10 17 10 6
0 3 -12 -7 -26z m756 -17 c-10 -9 -11 -8 -5 6 3 10 9 15 12 12 3 -3 0 -11 -7
-18z m-81 3 c0 -12 -45 -24 -59 -15 -22 13 -10 25 24 25 19 0 35 -4 35 -10z
m166 -16 c-5 -17 -3 -23 4 -19 5 3 10 -1 10 -9 0 -8 -4 -17 -9 -20 -11 -7 -23
37 -15 58 10 26 17 18 10 -10z m-375 -27 l-24 -22 19 27 c10 14 21 24 23 22 3
-3 -6 -15 -18 -27z m-137 7 c3 -8 2 -12 -4 -9 -6 3 -10 10 -10 16 0 14 7 11
14 -7z m451 7 c3 -5 1 -12 -5 -16 -5 -3 -10 1 -10 9 0 18 6 21 15 7z m-824
-44 c-13 -13 -15 1 -4 30 7 17 8 17 11 -1 2 -10 -1 -23 -7 -29z m905 -23 c-4
-9 -9 -15 -11 -12 -3 3 -3 13 1 22 4 9 9 15 11 12 3 -3 3 -13 -1 -22z m-377 1
c97 -3 91 -1 92 -27 1 -22 1 -22 8 1 11 40 29 36 41 -9 12 -45 7 -61 -12 -42
-8 8 -15 9 -25 1 -9 -8 -17 -8 -25 -1 -8 5 -22 6 -33 1 -43 -17 -55 -11 -56
29 -1 38 -3 37 -13 -11 -8 -34 -26 -26 -27 11 -1 27 -1 27 -8 -3 -7 -31 -24
-38 -68 -23 -12 4 -24 4 -27 -1 -4 -6 -125 -8 -157 -2 -12 2 -7 69 5 74 6 2
27 3 46 3 28 -1 36 -5 38 -23 4 -28 22 -31 22 -4 0 26 18 37 26 16 6 -14 8
-14 19 2 12 15 14 16 18 3 3 -8 8 -22 10 -30 3 -8 6 -3 6 12 1 26 17 40 35 30
4 -2 43 -6 85 -7z m-525 -11 c9 -24 7 -27 -9 -10 -17 17 -19 26 -6 26 5 0 12
-7 15 -16z m912 -21 c-4 -9 -2 -19 4 -23 6 -4 2 -14 -11 -26 -22 -19 -22 -19
-10 4 8 14 8 22 1 22 -6 0 -6 7 2 20 16 24 22 26 14 3z m-926 -18 c0 -14 -4
-25 -10 -25 -11 0 -14 33 -3 43 11 11 13 8 13 -18z m860 21 c0 -3 -4 -8 -10
-11 -5 -3 -10 -1 -10 4 0 6 5 11 10 11 6 0 10 -2 10 -4z m73 -83 c-2 -16 -5
-37 -6 -47 -1 -11 -9 -22 -17 -24 -13 -5 -13 -3 -1 11 10 13 11 17 1 17 -9 0
-7 7 5 20 12 13 14 20 5 20 -10 0 -10 3 0 15 17 20 18 19 13 -12z m-930 -3 c3
-11 1 -17 -4 -14 -6 3 -7 -5 -3 -20 4 -16 2 -26 -5 -26 -6 0 -10 17 -9 40 1
43 12 53 21 20z m15 -98 c23 -47 24 -52 14 -52 -6 0 -16 15 -23 33 -7 17 -14
35 -17 40 -2 4 0 7 5 7 4 0 14 -12 21 -28z m842 8 c0 -5 -4 -10 -10 -10 -5 0
-10 5 -10 10 0 6 5 10 10 10 6 0 10 -4 10 -10z m60 -5 c-7 -8 -17 -15 -22 -15
-6 0 -5 7 2 15 7 8 17 15 22 15 6 0 5 -7 -2 -15z m-10 -40 c-7 -8 -18 -15 -24
-15 -6 0 -2 7 8 15 25 19 32 19 16 0z m-846 -11 c3 -8 2 -12 -4 -9 -6 3 -10
10 -10 16 0 14 7 11 14 -7z m816 -39 c-7 -9 -15 -13 -19 -10 -3 3 1 10 9 15
21 14 24 12 10 -5z m-740 -116 c-5 -9 -16 -22 -26 -30 -15 -12 -20 -9 -49 24
-18 21 -35 47 -38 57 -5 18 -3 19 24 5 38 -20 46 -19 55 7 6 20 8 20 24 -13
12 -22 15 -40 10 -50z m195 -65 c106 -29 241 -10 340 46 l52 30 21 -23 c12
-13 22 -26 22 -29 0 -11 -148 -79 -205 -93 -121 -31 -242 -14 -372 51 -40 20
-73 39 -73 42 0 3 10 16 21 28 l22 23 61 -31 c33 -17 84 -37 111 -44z"/>
<path d="M439 964 c-7 -9 -22 -19 -33 -23 -16 -6 -16 -9 -4 -14 10 -3 23 5 37
24 23 31 23 40 0 13z"/>
<path d="M661 754 c0 -11 3 -14 6 -6 3 7 2 16 -1 19 -3 4 -6 -2 -5 -13z"/>
<path d="M455 370 c-7 -12 2 -30 16 -30 12 0 12 27 0 35 -5 3 -12 1 -16 -5z"/>
<path d="M1017 363 c-9 -14 8 -33 21 -24 10 6 10 10 -2 20 -8 7 -17 8 -19 4z"/>
<path d="M490 336 c0 -8 11 -17 25 -20 32 -8 51 2 35 18 -8 8 -13 7 -20 -4 -8
-13 -10 -12 -10 3 0 9 -7 17 -15 17 -8 0 -15 -6 -15 -14z"/>
<path d="M996 337 c3 -10 9 -15 12 -12 3 3 0 11 -7 18 -10 9 -11 8 -5 -6z"/>
<path d="M962 329 c2 -7 10 -15 17 -17 8 -3 12 1 9 9 -2 7 -10 15 -17 17 -8 3
-12 -1 -9 -9z"/>
<path d="M566 323 c-9 -9 -7 -33 3 -33 12 0 22 28 12 34 -5 3 -11 3 -15 -1z"/>
<path d="M919 318 c-8 -7 -23 -14 -34 -16 -11 -1 -31 -4 -45 -6 -14 -2 -26
-11 -28 -20 -4 -17 13 -22 22 -7 3 5 15 7 26 4 15 -4 20 0 20 13 0 14 2 16 9
6 6 -11 11 -10 25 3 9 9 16 12 16 6 0 -6 4 -11 9 -11 10 0 9 25 -1 35 -3 3
-12 0 -19 -7z"/>
<path d="M597 303 c-12 -12 -7 -21 10 -19 21 3 30 26 11 26 -8 0 -18 -3 -21
-7z"/>
<path d="M637 293 c-11 -11 -8 -20 8 -20 8 0 15 6 15 14 0 14 -12 17 -23 6z"/>
<path d="M677 286 c-6 -15 1 -26 15 -26 11 0 10 27 -1 34 -5 3 -11 0 -14 -8z"/>
<path d="M711 274 c0 -11 3 -14 6 -6 3 7 2 16 -1 19 -3 4 -6 -2 -5 -13z"/>
<path d="M746 283 c-14 -14 -4 -23 24 -21 17 1 30 7 30 13 0 12 -43 18 -54 8z"/>
<path d="M187 1105 c-17 -24 -17 -24 19 -51 l35 -27 27 26 c15 15 21 27 15 27
-7 0 -16 -7 -21 -17 -6 -10 -16 -14 -27 -9 -17 6 -17 7 0 26 10 11 13 20 7 20
-6 0 -14 -4 -17 -10 -3 -5 -13 -10 -22 -10 -14 0 -14 3 1 25 21 32 7 32 -17 0z"/>
<path d="M1270 1123 c-8 -3 -26 -10 -40 -15 l-24 -9 24 -13 c14 -7 24 -20 24
-29 -3 -27 13 -20 35 17 32 51 26 66 -19 49z m10 -23 c0 -5 -5 -10 -11 -10 -5
0 -7 5 -4 10 3 6 8 10 11 10 2 0 4 -4 4 -10z"/>
<path d="M1323 1024 c-44 -34 -42 -47 5 -38 l37 7 -24 -27 c-14 -14 -22 -28
-19 -32 3 -3 28 2 54 10 39 13 42 15 17 13 -36 -4 -41 4 -18 23 24 20 17 33
-15 28 -36 -5 -37 -2 -7 23 34 28 7 22 -30 -7z"/>
<path d="M121 1003 l-21 -26 41 -24 c23 -13 45 -21 48 -17 3 3 -2 10 -12 15
-13 8 -15 14 -7 29 7 14 6 23 -6 34 -20 20 -19 21 -43 -11z m32 -24 c-17 -17
-37 -1 -22 17 8 10 15 12 23 4 7 -7 7 -13 -1 -21z"/>
<path d="M72 898 c-29 -29 -3 -78 42 -78 18 0 46 27 46 45 0 36 -62 59 -88 33z
m66 -35 c3 -19 -1 -23 -26 -23 -18 0 -32 6 -36 16 -9 24 3 36 32 32 19 -2 28
-10 30 -25z"/>
<path d="M1352 883 c22 -6 33 -40 18 -58 -25 -30 20 -6 80 42 12 10 -29 23
-70 22 -25 -1 -37 -3 -28 -6z m63 -23 c-3 -5 -10 -10 -16 -10 -5 0 -9 5 -9 10
0 6 7 10 16 10 8 0 12 -4 9 -10z"/>
<path d="M40 773 c0 -6 7 -16 15 -23 21 -18 19 -30 -7 -31 -22 -1 -22 -1 2 -9
36 -12 80 -12 80 0 0 6 -6 10 -14 10 -27 0 -27 20 -2 32 14 6 26 15 26 20 0 5
-14 1 -31 -7 -29 -15 -32 -15 -50 1 -10 9 -19 12 -19 7z"/>
<path d="M1385 770 c-17 -6 -14 -8 15 -11 l35 -4 -35 -22 c-27 -17 -31 -23
-18 -28 9 -4 36 -2 60 3 l43 10 -35 1 -35 2 28 22 c15 13 27 26 27 30 0 9 -60
8 -85 -3z"/>
<path d="M79 549 c-12 -8 -11 -12 5 -24 16 -12 22 -12 28 -2 4 6 8 15 8 18 0
12 -27 17 -41 8z"/>
<path d="M1394 552 c-15 -9 -3 -37 16 -37 19 0 31 28 16 37 -6 4 -13 8 -16 8
-3 0 -10 -4 -16 -8z"/>
<path d="M157 406 l-37 -23 21 -26 c23 -30 47 -35 55 -12 4 8 12 15 19 15 23
0 27 20 11 45 -20 30 -21 30 -69 1z m56 -10 c6 -16 -2 -28 -14 -20 -12 7 -11
34 0 34 5 0 11 -6 14 -14z m-34 -45 c-16 -5 -33 15 -24 30 6 9 12 7 22 -7 9
-13 10 -20 2 -23z"/>
<path d="M1309 410 c24 -21 22 -23 -16 -21 -35 3 -36 -17 -1 -39 42 -25 61
-26 28 0 l-25 20 36 0 c51 0 54 10 11 36 -45 29 -66 31 -33 4z"/>
<path d="M1210 323 c0 -12 71 -66 78 -59 3 4 -10 20 -29 36 -34 29 -49 36 -49
23z"/>
<path d="M245 291 c-28 -14 -34 -20 -19 -20 26 -1 44 -19 37 -37 -11 -30 14
-12 30 21 29 61 20 68 -48 36z m39 -16 c-4 -8 -10 -12 -15 -9 -11 6 -2 24 11
24 5 0 7 -7 4 -15z"/>
<path d="M1130 255 c-7 -8 -9 -22 -6 -31 6 -16 18 -16 59 1 12 5 17 2 17 -9 0
-9 -8 -16 -20 -16 -11 0 -20 -4 -20 -10 0 -15 36 -12 50 5 7 8 9 22 6 31 -5
13 -14 15 -41 10 -40 -8 -49 9 -12 24 22 9 22 9 1 9 -12 1 -27 -6 -34 -14z"/>
<path d="M352 213 c-24 -36 -25 -56 -2 -28 19 23 29 18 27 -11 -1 -15 3 -28 8
-30 11 -4 59 65 51 73 -2 3 -11 -4 -18 -16 -18 -29 -28 -26 -28 8 0 43 -12 44
-38 4z"/>
<path d="M1029 196 c-7 -8 3 -96 11 -96 4 0 10 10 13 21 5 18 11 21 39 16 l33
-7 -40 35 c-40 35 -48 39 -56 31z m32 -39 c-1 -12 -15 -9 -19 4 -3 6 1 10 8 8
6 -3 11 -8 11 -12z"/>
<path d="M510 140 c-13 -31 -35 -40 -43 -17 -2 6 -8 9 -13 4 -4 -4 0 -15 9
-25 13 -12 22 -14 33 -7 18 12 47 75 35 75 -5 0 -14 -13 -21 -30z"/>
<path d="M918 128 l-4 -33 -13 28 c-22 42 -45 36 -36 -10 3 -21 11 -42 17 -48
7 -7 9 -1 5 20 -5 30 -5 30 10 8 19 -28 33 -29 33 -3 0 27 16 25 25 -2 4 -14
8 -18 11 -11 8 20 -16 83 -31 83 -8 0 -15 -13 -17 -32z"/>
<path d="M596 110 c-27 -42 -34 -62 -14 -42 17 17 47 15 54 -3 11 -29 26 -15
19 18 -16 81 -21 84 -59 27z m30 -17 c-10 -10 -19 5 -10 18 6 11 8 11 12 0 2
-7 1 -15 -2 -18z"/>
<path d="M724 126 c-3 -9 -3 -33 2 -54 6 -29 9 -32 12 -14 4 26 17 28 38 7 19
-18 38 -20 27 -2 -4 6 -8 26 -8 42 0 27 -4 30 -33 33 -22 2 -34 -2 -38 -12z
m56 -16 c0 -5 -9 -10 -20 -10 -11 0 -20 5 -20 10 0 6 9 10 20 10 11 0 20 -4
20 -10z"/>
</g>
</svg>
